HIERARCHY
ROOT hip
{
	OFFSET 0.000000 0.000000 0.000000 
	CHANNELS 6 Xposition Yposition Zposition Xrotation Zrotation Yrotation
	JOINT abdomen
	{
		OFFSET 0.000000 3.402643 0.000000 
		CHANNELS 3 Xrotation Zrotation Yrotation
		JOINT chest
		{
			OFFSET 0.000000 8.438565 -0.680529 
			CHANNELS 3 Xrotation Zrotation Yrotation
			JOINT neck
			{
				OFFSET 0.000000 10.207942 -0.272212 
				CHANNELS 3 Xrotation Zrotation Yrotation
				JOINT head
				{
					OFFSET 0.000000 3.130431 0.000000 
					CHANNELS 3 Xrotation Zrotation Yrotation
					End Site
					{
						OFFSET 0.000000 3.130435 0.000000 
					}
				}
			}
			JOINT lCollar
			{
				OFFSET 3.470700 6.669187 -0.816635 
				CHANNELS 3 Yrotation Zrotation Xrotation
				JOINT lShldr
				{
					OFFSET 3.198488 0.000000 0.000000 
					CHANNELS 3 Zrotation Yrotation Xrotation
					JOINT lForeArm
					{
						OFFSET 10.139888 0.000000 0.000000 
						CHANNELS 3 Yrotation Zrotation Xrotation
						JOINT lHand
						{
							OFFSET 8.370511 0.000000 0.000000 
							CHANNELS 3 Zrotation Yrotation Xrotation
							End Site
							{
								OFFSET 4.083176 0.000000 0.000000 
							}
						}
					}
				}
			}
			JOINT rCollar
			{
				OFFSET -3.470700 6.669187 -0.816635 
				CHANNELS 3 Yrotation Zrotation Xrotation
				JOINT rShldr
				{
					OFFSET -3.198488 0.000000 0.000000 
					CHANNELS 3 Zrotation Yrotation Xrotation
					JOINT rForeArm
					{
						OFFSET -10.139888 0.000000 0.000000 
						CHANNELS 3 Yrotation Zrotation Xrotation
						JOINT rHand
						{
							OFFSET -8.370511 0.000000 0.000000 
							CHANNELS 3 Zrotation Yrotation Xrotation
							End Site
							{
								OFFSET -4.083176 0.000000 0.000000 
							}
						}
					}
				}
			}
		}
	}
	JOINT lThigh
	{
		OFFSET 5.308129 -1.633274 1.361059 
		CHANNELS 3 Xrotation Zrotation Yrotation
		JOINT lShin
		{
			OFFSET -2.041588 -20.007561 0.000000 
			CHANNELS 3 Xrotation Zrotation Yrotation
			JOINT lFoot
			{
				OFFSET 0.000000 -19.190928 -1.224953 
				CHANNELS 3 Xrotation Yrotation Zrotation
				End Site
				{
					OFFSET 0.000000 -2.449906 4.627600 
				}
			}
		}
	}
	JOINT rThigh
	{
		OFFSET -5.308129 -1.633274 1.361059 
		CHANNELS 3 Xrotation Zrotation Yrotation
		JOINT rShin
		{
			OFFSET 2.041588 -20.007561 0.000000 
			CHANNELS 3 Xrotation Zrotation Yrotation
			JOINT rFoot
			{
				OFFSET 0.000000 -19.190928 -1.224953 
				CHANNELS 3 Xrotation Yrotation Zrotation
				End Site
				{
					OFFSET 0.000000 -2.449906 4.627600 
				}
			}
		}
	}
}
MOTION
Frames: 13
Frame Time: 0.016667
-0.270854 45.256699 -0.643039 4.592320 -1.878720 1.303960 -20.765499 1.365330 -3.285230 19.469400 4.413270 -1.352950 18.335506 -11.513729 -5.508244 15.145400 6.896870 -4.435160 2.000000 -2.000000 0.000000 91.181999 -177.147003 -4.730020 24.238600 -0.339512 0.056187 0.044721 0.005331 -135.016998 -2.000000 2.000000 0.000000 86.722603 -3.065200 162.863998 -31.016001 0.332018 0.070450 -0.055455 -0.008625 -130.339996 -9.528011 -4.851222 3.806401 21.993834 2.457685 1.858145 -15.088181 16.026918 4.880146 -14.456984 4.529191 9.603027 27.711752 -2.541078 -2.185063 -14.444759 -2.792371 -1.034736 
-0.278482 45.256569 -0.646073 4.621310 -1.752100 1.332770 -20.765600 1.359620 -3.272620 19.518299 4.481690 -1.350430 18.275009 -11.461531 -5.552003 15.106000 6.897870 -4.459380 2.000000 -2.000000 0.000000 91.142899 -177.175995 -4.788680 24.297100 -0.339455 0.056315 0.044718 0.005249 -135.046997 -2.000000 2.000000 0.000000 86.673798 -3.016500 162.921997 -30.986700 0.332054 0.070390 -0.055452 -0.008598 -130.350006 -9.548758 -4.987421 3.840332 21.923929 2.464914 1.850949 -15.001039 16.009478 4.833885 -14.523695 4.396594 9.575480 27.808399 -2.557340 -2.187218 -14.464858 -2.739404 -1.018095 
-0.285422 45.258106 -0.658020 4.650430 -1.674160 1.338220 -20.775700 1.357190 -3.251260 19.518299 4.510980 -1.341190 18.300182 -11.416817 -5.538629 15.096700 6.917290 -4.456830 2.000000 -2.000000 0.000000 91.123398 -177.175995 -4.837510 24.326401 -0.339426 0.056378 0.044719 0.005276 -135.037003 -2.000000 2.000000 0.000000 86.664101 -2.938580 163.011002 -30.976900 0.332066 0.070370 -0.055430 -0.008408 -130.417999 -9.556572 -5.058059 3.881602 21.806894 2.449743 1.830809 -14.859415 15.970295 4.820490 -14.547032 4.311698 9.637316 27.819550 -2.541215 -2.183259 -14.514743 -2.734910 -1.028074 
-0.292365 45.259644 -0.669963 4.679530 -1.586490 1.344540 -20.785700 1.354760 -3.229890 19.518200 4.540270 -1.331950 18.328554 -11.372917 -5.536368 15.087600 6.946290 -4.452430 2.000000 -2.000000 0.000000 91.113602 -177.186005 -4.886350 24.346001 -0.339407 0.056421 0.044720 0.005304 -135.026993 -2.000000 2.000000 0.000000 86.664200 -2.860660 163.098999 -30.957399 0.332090 0.070330 -0.055412 -0.008245 -130.475998 -9.570847 -5.137716 3.914388 21.719337 2.445627 1.841359 -14.745274 15.938148 4.761179 -14.605241 4.240024 9.674729 27.868668 -2.544608 -2.192860 -14.557102 -2.722171 -1.022362 
-0.296739 45.259911 -0.676368 4.708800 -1.566960 1.335570 -20.766100 1.321950 -3.206140 19.557501 4.471980 -1.317910 18.421661 -11.313246 -5.550379 15.117600 6.964700 -4.453740 2.000000 -2.000000 0.000000 91.162498 -177.156006 -4.935120 24.306900 -0.339445 0.056336 0.044726 0.005468 -134.968994 -2.000000 2.000000 0.000000 86.761902 -2.811980 163.167007 -31.045300 0.331982 0.070510 -0.055396 -0.008109 -130.524994 -9.601803 -5.164090 3.908568 21.698366 2.450688 1.822751 -14.733068 15.970102 4.788246 -14.655707 4.207539 9.642260 27.888483 -2.537238 -2.181108 -14.552918 -2.689702 -1.016107 
-0.301116 45.260159 -0.682772 4.738040 -1.537700 1.337190 -20.746500 1.283420 -3.169810 19.606600 4.403690 -1.312980 18.515602 -11.267982 -5.572434 15.147600 6.983110 -4.465980 2.000000 -2.000000 0.000000 91.221100 -177.136993 -4.983900 24.277599 -0.339474 0.056272 0.044732 0.005659 -134.899994 -2.000000 2.000000 0.000000 86.859596 -2.753520 163.225998 -31.123400 0.331885 0.070669 -0.055384 -0.008000 -130.563995 -9.621053 -5.191968 3.901614 21.650166 2.445889 1.832466 -14.714152 15.982689 4.802696 -14.705083 4.179788 9.619181 27.889091 -2.539327 -2.201057 -14.549145 -2.662392 -0.990192 
-0.306071 45.261070 -0.686206 4.777030 -1.498680 1.368700 -20.706699 1.255440 -3.188860 19.694700 4.384270 -1.315700 18.516455 -11.282383 -5.584402 15.166800 6.963430 -4.467350 2.000000 -2.000000 0.000000 91.279602 -177.029007 -4.983660 24.209299 -0.339541 0.056123 0.044733 0.005686 -134.891006 -2.000000 2.000000 0.000000 86.918198 -2.607170 163.285004 -31.152700 0.331849 0.070729 -0.055345 -0.007647 -130.690994 -9.590394 -5.231138 3.898951 21.553131 2.431097 1.822267 -14.695645 15.944701 4.789682 -14.790539 4.131813 9.573970 28.024300 -2.558725 -2.193504 -14.612494 -2.643271 -0.982013 
-0.311026 45.262096 -0.689640 4.806230 -1.449960 1.411090 -20.657400 1.231000 -3.198430 19.792700 4.364850 -1.327510 18.518156 -11.311173 -5.604517 15.175900 6.934440 -4.471800 2.000000 -2.000000 0.000000 91.348000 -176.921997 -4.973660 24.131100 -0.339617 0.055953 0.044734 0.005714 -134.880997 -2.000000 2.000000 0.000000 86.986603 -2.470590 163.343994 -31.181999 0.331813 0.070789 -0.055307 -0.007293 -130.817993 -9.654284 -5.279695 3.887327 21.543154 2.432541 1.822726 -14.649773 15.928838 4.753388 -14.781757 4.062620 9.570299 27.937561 -2.545766 -2.201725 -14.551635 -2.587273 -0.983493 
-0.321063 45.262867 -0.692822 4.816040 -1.469410 1.399440 -20.648199 1.241410 -3.170640 19.802500 4.345330 -1.306980 18.602663 -11.341071 -5.618433 15.225300 6.942750 -4.473780 2.000000 -2.000000 0.000000 91.396797 -176.873001 -4.934490 24.072500 -0.339674 0.055826 0.044743 0.005960 -134.792999 -2.000000 2.000000 0.000000 87.035400 -2.441310 163.354004 -31.308901 0.331656 0.071048 -0.055319 -0.007402 -130.779007 -9.681471 -5.245618 3.919171 21.581253 2.439981 1.813187 -14.642860 15.889740 4.752112 -14.783944 4.095161 9.606733 27.899515 -2.536651 -2.209882 -14.555148 -2.620372 -1.001065 
-0.331103 45.263634 -0.696003 4.825850 -1.488850 1.387780 -20.638800 1.248400 -3.151980 19.822100 4.325820 -1.295480 18.695045 -11.386207 -5.624512 15.274400 6.941480 -4.477650 2.000000 -2.000000 0.000000 91.455399 -176.815002 -4.885530 24.004200 -0.339741 0.055677 0.044754 0.006233 -134.695007 -2.000000 2.000000 0.000000 87.074501 -2.421810 163.363007 -31.435900 0.331498 0.071306 -0.055328 -0.007484 -130.750000 -9.657199 -5.206616 3.915140 21.535620 2.422210 1.850218 -14.612006 15.840981 4.721044 -14.794645 4.133141 9.641581 27.870478 -2.532192 -2.209401 -14.558589 -2.657350 -1.009738 
-0.338781 45.262867 -0.696890 4.806420 -1.537550 1.423250 -20.687599 1.262560 -3.169840 19.724199 4.325720 -1.302850 18.645422 -11.412413 -5.638271 15.254300 6.922830 -4.483780 2.000000 -2.000000 0.000000 91.426102 -176.893005 -4.915000 23.965099 -0.339779 0.055592 0.044758 0.006342 -134.656006 -2.000000 2.000000 0.000000 87.064697 -2.470680 163.382996 -31.455400 0.331474 0.071346 -0.055351 -0.007701 -130.671997 -9.665816 -5.145195 3.915038 21.613455 2.421686 1.829246 -14.675763 15.828752 4.745474 -14.742053 4.196492 9.632926 27.821846 -2.527740 -2.209184 -14.553044 -2.689082 -1.015772 
-0.346462 45.261971 -0.697778 4.777250 -1.596000 1.467980 -20.736300 1.282420 -3.200330 19.626301 4.325600 -1.319980 18.598156 -11.425030 -5.651174 15.224500 6.914010 -4.500140 2.000000 -2.000000 0.000000 91.406601 -176.970993 -4.934710 23.926100 -0.339816 0.055507 0.044763 0.006479 -134.606995 -2.000000 2.000000 0.000000 87.055000 -2.529320 163.401993 -31.484699 0.331437 0.071406 -0.055378 -0.007946 -130.584000 -9.661637 -5.065997 3.893916 21.691254 2.428921 1.829130 -14.730471 15.802720 4.752386 -14.714900 4.274756 9.620806 27.792648 -2.525322 -2.209141 -14.552459 -2.745070 -1.034659 
-0.353510 45.261456 -0.692866 4.777230 -1.586270 1.488320 -20.766001 1.297980 -3.186610 19.577299 4.325540 -1.313900 18.564381 -11.398488 -5.681904 15.194800 6.905190 -4.515310 2.000000 -2.000000 0.000000 91.387100 -176.990005 -4.934750 23.906500 -0.339835 0.055464 0.044762 0.006451 -134.617004 -2.000000 2.000000 0.000000 87.064697 -2.597500 163.324005 -31.504200 0.331413 0.071446 -0.055390 -0.008054 -130.544998 -9.722003 -5.074704 3.920274 21.768471 2.441620 1.830069 -14.713511 15.783361 4.727324 -14.759818 4.292147 9.604580 27.869286 -2.541868 -2.201920 -14.579727 -2.757693 -1.041815 
